<svg width="146" height="40" viewBox="0 0 146 40" fill="none" xmlns="http://www.w3.org/2000/svg">
<circle cx="29.4492" cy="20" r="20" fill="#A35D0A"/>
<path d="M38.4492 26.75V20.1301C38.4492 18.9814 38.4492 18.4071 38.3012 17.8781C38.17 17.4096 37.9545 16.9689 37.6652 16.5777C37.3385 16.1361 36.8852 15.7835 35.9784 15.0783L33.3784 13.0561L33.3784 13.0561C31.9731 11.963 31.2705 11.4165 30.4946 11.2065C29.81 11.0211 29.0884 11.0211 28.4038 11.2065C27.628 11.4165 26.9253 11.963 25.52 13.0561L22.92 15.0783C22.0133 15.7835 21.5599 16.1361 21.2333 16.5777C20.944 16.9689 20.7284 17.4096 20.5973 17.8781C20.4492 18.4071 20.4492 18.9814 20.4492 20.1301V26.75C20.4492 27.4478 20.4492 27.7967 20.5353 28.0806C20.7292 28.7198 21.2294 29.22 21.8686 29.4139C22.1525 29.5 22.5014 29.5 23.1992 29.5H23.8242C23.9403 29.5 23.9983 29.5 24.0474 29.4976C25.0748 29.4471 25.8963 28.6255 25.9468 27.5981C25.9492 27.5491 25.9492 27.4911 25.9492 27.375V24.5C25.9492 22.567 27.5162 21 29.4492 21C31.3822 21 32.9492 22.567 32.9492 24.5V27.375C32.9492 27.4911 32.9492 27.5491 32.9516 27.5981C33.0021 28.6255 33.8237 29.4471 34.8511 29.4976C34.9001 29.5 34.9582 29.5 35.0742 29.5H35.6992C36.397 29.5 36.7459 29.5 37.0298 29.4139C37.669 29.22 38.1692 28.7198 38.3631 28.0806C38.4492 27.7967 38.4492 27.4478 38.4492 26.75Z" stroke="white" stroke-width="1.8"/>
<path d="M65.7305 15.4688V16.3945H61.6172V24H60.4922V15.4688H65.7305ZM65.5664 20.9004V20.7656C65.5664 20.3086 65.6328 19.8848 65.7656 19.4941C65.8984 19.0996 66.0898 18.7578 66.3398 18.4688C66.5898 18.1758 66.8926 17.9492 67.248 17.7891C67.6035 17.625 68.002 17.543 68.4434 17.543C68.8887 17.543 69.2891 17.625 69.6445 17.7891C70.0039 17.9492 70.3086 18.1758 70.5586 18.4688C70.8125 18.7578 71.0059 19.0996 71.1387 19.4941C71.2715 19.8848 71.3379 20.3086 71.3379 20.7656V20.9004C71.3379 21.3574 71.2715 21.7812 71.1387 22.1719C71.0059 22.5625 70.8125 22.9043 70.5586 23.1973C70.3086 23.4863 70.0059 23.7129 69.6504 23.877C69.2988 24.0371 68.9004 24.1172 68.4551 24.1172C68.0098 24.1172 67.6094 24.0371 67.2539 23.877C66.8984 23.7129 66.5938 23.4863 66.3398 23.1973C66.0898 22.9043 65.8984 22.5625 65.7656 22.1719C65.6328 21.7812 65.5664 21.3574 65.5664 20.9004ZM66.6504 20.7656V20.9004C66.6504 21.2168 66.6875 21.5156 66.7617 21.7969C66.8359 22.0742 66.9473 22.3203 67.0957 22.5352C67.248 22.75 67.4375 22.9199 67.6641 23.0449C67.8906 23.166 68.1543 23.2266 68.4551 23.2266C68.752 23.2266 69.0117 23.166 69.2344 23.0449C69.4609 22.9199 69.6484 22.75 69.7969 22.5352C69.9453 22.3203 70.0566 22.0742 70.1309 21.7969C70.209 21.5156 70.248 21.2168 70.248 20.9004V20.7656C70.248 20.4531 70.209 20.1582 70.1309 19.8809C70.0566 19.5996 69.9434 19.3516 69.791 19.1367C69.6426 18.918 69.4551 18.7461 69.2285 18.6211C69.0059 18.4961 68.7441 18.4336 68.4434 18.4336C68.1465 18.4336 67.8848 18.4961 67.6582 18.6211C67.4355 18.7461 67.248 18.918 67.0957 19.1367C66.9473 19.3516 66.8359 19.5996 66.7617 19.8809C66.6875 20.1582 66.6504 20.4531 66.6504 20.7656ZM75.1523 17.6602V24H74.0625V17.6602H75.1523ZM77.2793 17.6602V18.5391H71.9766V17.6602H77.2793ZM77.8125 20.9004V20.7656C77.8125 20.3086 77.8789 19.8848 78.0117 19.4941C78.1445 19.0996 78.3359 18.7578 78.5859 18.4688C78.8359 18.1758 79.1387 17.9492 79.4941 17.7891C79.8496 17.625 80.248 17.543 80.6895 17.543C81.1348 17.543 81.5352 17.625 81.8906 17.7891C82.25 17.9492 82.5547 18.1758 82.8047 18.4688C83.0586 18.7578 83.252 19.0996 83.3848 19.4941C83.5176 19.8848 83.584 20.3086 83.584 20.7656V20.9004C83.584 21.3574 83.5176 21.7812 83.3848 22.1719C83.252 22.5625 83.0586 22.9043 82.8047 23.1973C82.5547 23.4863 82.252 23.7129 81.8965 23.877C81.5449 24.0371 81.1465 24.1172 80.7012 24.1172C80.2559 24.1172 79.8555 24.0371 79.5 23.877C79.1445 23.7129 78.8398 23.4863 78.5859 23.1973C78.3359 22.9043 78.1445 22.5625 78.0117 22.1719C77.8789 21.7812 77.8125 21.3574 77.8125 20.9004ZM78.8965 20.7656V20.9004C78.8965 21.2168 78.9336 21.5156 79.0078 21.7969C79.082 22.0742 79.1934 22.3203 79.3418 22.5352C79.4941 22.75 79.6836 22.9199 79.9102 23.0449C80.1367 23.166 80.4004 23.2266 80.7012 23.2266C80.998 23.2266 81.2578 23.166 81.4805 23.0449C81.707 22.9199 81.8945 22.75 82.043 22.5352C82.1914 22.3203 82.3027 22.0742 82.377 21.7969C82.4551 21.5156 82.4941 21.2168 82.4941 20.9004V20.7656C82.4941 20.4531 82.4551 20.1582 82.377 19.8809C82.3027 19.5996 82.1895 19.3516 82.0371 19.1367C81.8887 18.918 81.7012 18.7461 81.4746 18.6211C81.252 18.4961 80.9902 18.4336 80.6895 18.4336C80.3926 18.4336 80.1309 18.4961 79.9043 18.6211C79.6816 18.7461 79.4941 18.918 79.3418 19.1367C79.1934 19.3516 79.082 19.5996 79.0078 19.8809C78.9336 20.1582 78.8965 20.4531 78.8965 20.7656ZM87.9199 21.2109H85.8398L85.8281 20.3438H87.5273C87.8633 20.3438 88.1426 20.3105 88.3652 20.2441C88.5918 20.1777 88.7617 20.0781 88.875 19.9453C88.9883 19.8125 89.0449 19.6484 89.0449 19.4531C89.0449 19.3008 89.0117 19.168 88.9453 19.0547C88.8828 18.9375 88.7871 18.8418 88.6582 18.7676C88.5293 18.6895 88.3691 18.6328 88.1777 18.5977C87.9902 18.5586 87.7695 18.5391 87.5156 18.5391H86.127V24H85.043V17.6602H87.5156C87.918 17.6602 88.2793 17.6953 88.5996 17.7656C88.9238 17.8359 89.1992 17.9434 89.4258 18.0879C89.6562 18.2285 89.832 18.4082 89.9531 18.627C90.0742 18.8457 90.1348 19.1035 90.1348 19.4004C90.1348 19.5918 90.0957 19.7734 90.0176 19.9453C89.9395 20.1172 89.8242 20.2695 89.6719 20.4023C89.5195 20.5352 89.332 20.6445 89.1094 20.7305C88.8867 20.8125 88.6309 20.8652 88.3418 20.8887L87.9199 21.2109ZM87.9199 24H85.4473L85.9863 23.1211H87.9199C88.2207 23.1211 88.4707 23.084 88.6699 23.0098C88.8691 22.9316 89.0176 22.8223 89.1152 22.6816C89.2168 22.5371 89.2676 22.3652 89.2676 22.166C89.2676 21.9668 89.2168 21.7969 89.1152 21.6562C89.0176 21.5117 88.8691 21.4023 88.6699 21.3281C88.4707 21.25 88.2207 21.2109 87.9199 21.2109H86.2734L86.2852 20.3438H88.3418L88.7344 20.6719C89.082 20.6992 89.377 20.7852 89.6191 20.9297C89.8613 21.0742 90.0449 21.2578 90.1699 21.4805C90.2949 21.6992 90.3574 21.9375 90.3574 22.1953C90.3574 22.4922 90.3008 22.7539 90.1875 22.9805C90.0781 23.207 89.918 23.3965 89.707 23.5488C89.4961 23.6973 89.2402 23.8105 88.9395 23.8887C88.6387 23.9629 88.2988 24 87.9199 24ZM95.9648 17.6602V24H94.8809V17.6602H95.9648ZM100.125 17.6602L97.1191 21.293H95.6016L95.4375 20.3438H96.6797L98.8066 17.6602H100.125ZM98.959 24L96.627 21.1289L97.3242 20.3438L100.336 24H98.959ZM107.232 21.2109H105.152L105.141 20.3438H106.84C107.176 20.3438 107.455 20.3105 107.678 20.2441C107.904 20.1777 108.074 20.0781 108.188 19.9453C108.301 19.8125 108.357 19.6484 108.357 19.4531C108.357 19.3008 108.324 19.168 108.258 19.0547C108.195 18.9375 108.1 18.8418 107.971 18.7676C107.842 18.6895 107.682 18.6328 107.49 18.5977C107.303 18.5586 107.082 18.5391 106.828 18.5391H105.439V24H104.355V17.6602H106.828C107.23 17.6602 107.592 17.6953 107.912 17.7656C108.236 17.8359 108.512 17.9434 108.738 18.0879C108.969 18.2285 109.145 18.4082 109.266 18.627C109.387 18.8457 109.447 19.1035 109.447 19.4004C109.447 19.5918 109.408 19.7734 109.33 19.9453C109.252 20.1172 109.137 20.2695 108.984 20.4023C108.832 20.5352 108.645 20.6445 108.422 20.7305C108.199 20.8125 107.943 20.8652 107.654 20.8887L107.232 21.2109ZM107.232 24H104.76L105.299 23.1211H107.232C107.533 23.1211 107.783 23.084 107.982 23.0098C108.182 22.9316 108.33 22.8223 108.428 22.6816C108.529 22.5371 108.58 22.3652 108.58 22.166C108.58 21.9668 108.529 21.7969 108.428 21.6562C108.33 21.5117 108.182 21.4023 107.982 21.3281C107.783 21.25 107.533 21.2109 107.232 21.2109H105.586L105.598 20.3438H107.654L108.047 20.6719C108.395 20.6992 108.689 20.7852 108.932 20.9297C109.174 21.0742 109.357 21.2578 109.482 21.4805C109.607 21.6992 109.67 21.9375 109.67 22.1953C109.67 22.4922 109.613 22.7539 109.5 22.9805C109.391 23.207 109.23 23.3965 109.02 23.5488C108.809 23.6973 108.553 23.8105 108.252 23.8887C107.951 23.9629 107.611 24 107.232 24ZM112.014 19.8398H113.918C114.43 19.8398 114.861 19.9297 115.213 20.1094C115.564 20.2852 115.83 20.5293 116.01 20.8418C116.193 21.1504 116.285 21.502 116.285 21.8965C116.285 22.1895 116.234 22.4648 116.133 22.7227C116.031 22.9766 115.879 23.1992 115.676 23.3906C115.477 23.582 115.229 23.7324 114.932 23.8418C114.639 23.9473 114.301 24 113.918 24H111.223V17.6602H112.307V23.1094H113.918C114.23 23.1094 114.48 23.0527 114.668 22.9395C114.855 22.8262 114.99 22.6797 115.072 22.5C115.154 22.3203 115.195 22.1328 115.195 21.9375C115.195 21.7461 115.154 21.5586 115.072 21.375C114.99 21.1914 114.855 21.0391 114.668 20.918C114.48 20.793 114.23 20.7305 113.918 20.7305H112.014V19.8398ZM118.541 17.6602V24H117.457V17.6602H118.541ZM121.582 17.6602H122.666L122.572 20.0332C122.549 20.6348 122.48 21.1543 122.367 21.5918C122.254 22.0293 122.109 22.4023 121.934 22.7109C121.758 23.0156 121.561 23.2715 121.342 23.4785C121.127 23.6855 120.904 23.8594 120.674 24H120.135L120.164 23.1152L120.387 23.1094C120.516 22.957 120.641 22.8008 120.762 22.6406C120.883 22.4766 120.994 22.2832 121.096 22.0605C121.197 21.834 121.281 21.5586 121.348 21.2344C121.418 20.9062 121.463 20.5059 121.482 20.0332L121.582 17.6602ZM121.852 17.6602H125.666V24H124.582V18.6621H121.852V17.6602ZM119.889 23.1094H126.48V25.8691H125.396V24H120.973V25.8691H119.883L119.889 23.1094ZM131.42 22.916V19.6523C131.42 19.4023 131.369 19.1855 131.268 19.002C131.17 18.8145 131.021 18.6699 130.822 18.5684C130.623 18.4668 130.377 18.416 130.084 18.416C129.811 18.416 129.57 18.4629 129.363 18.5566C129.16 18.6504 129 18.7734 128.883 18.9258C128.77 19.0781 128.713 19.2422 128.713 19.418H127.629C127.629 19.1914 127.688 18.9668 127.805 18.7441C127.922 18.5215 128.09 18.3203 128.309 18.1406C128.531 17.957 128.797 17.8125 129.105 17.707C129.418 17.5977 129.766 17.543 130.148 17.543C130.609 17.543 131.016 17.6211 131.367 17.7773C131.723 17.9336 132 18.1699 132.199 18.4863C132.402 18.7988 132.504 19.1914 132.504 19.6641V22.6172C132.504 22.8281 132.521 23.0527 132.557 23.291C132.596 23.5293 132.652 23.7344 132.727 23.9062V24H131.596C131.541 23.875 131.498 23.709 131.467 23.502C131.436 23.291 131.42 23.0957 131.42 22.916ZM131.607 20.1562L131.619 20.918H130.523C130.215 20.918 129.939 20.9434 129.697 20.9941C129.455 21.041 129.252 21.1133 129.088 21.2109C128.924 21.3086 128.799 21.4316 128.713 21.5801C128.627 21.7246 128.584 21.8945 128.584 22.0898C128.584 22.2891 128.629 22.4707 128.719 22.6348C128.809 22.7988 128.943 22.9297 129.123 23.0273C129.307 23.1211 129.531 23.168 129.797 23.168C130.129 23.168 130.422 23.0977 130.676 22.957C130.93 22.8164 131.131 22.6445 131.279 22.4414C131.432 22.2383 131.514 22.041 131.525 21.8496L131.988 22.3711C131.961 22.5352 131.887 22.7168 131.766 22.916C131.645 23.1152 131.482 23.3066 131.279 23.4902C131.08 23.6699 130.842 23.8203 130.564 23.9414C130.291 24.0586 129.982 24.1172 129.639 24.1172C129.209 24.1172 128.832 24.0332 128.508 23.8652C128.188 23.6973 127.938 23.4727 127.758 23.1914C127.582 22.9062 127.494 22.5879 127.494 22.2363C127.494 21.8965 127.561 21.5977 127.693 21.3398C127.826 21.0781 128.018 20.8613 128.268 20.6895C128.518 20.5137 128.818 20.3809 129.17 20.291C129.521 20.2012 129.914 20.1562 130.348 20.1562H131.607ZM138.99 17.6602V24H137.906V17.6602H138.99ZM138.621 20.5723V21.4629C138.402 21.5449 138.18 21.6191 137.953 21.6855C137.73 21.748 137.494 21.7988 137.244 21.8379C136.998 21.873 136.73 21.8906 136.441 21.8906C135.941 21.8906 135.508 21.8047 135.141 21.6328C134.773 21.457 134.49 21.1934 134.291 20.8418C134.092 20.4863 133.992 20.0391 133.992 19.5V17.6484H135.076V19.5C135.076 19.8516 135.129 20.1367 135.234 20.3555C135.34 20.5742 135.494 20.7363 135.697 20.8418C135.9 20.9434 136.148 20.9941 136.441 20.9941C136.723 20.9941 136.986 20.9766 137.232 20.9414C137.482 20.9023 137.721 20.8516 137.947 20.7891C138.178 20.7266 138.402 20.6543 138.621 20.5723ZM143.367 24.1172C142.926 24.1172 142.525 24.043 142.166 23.8945C141.811 23.7422 141.504 23.5293 141.246 23.2559C140.992 22.9824 140.797 22.6582 140.66 22.2832C140.523 21.9082 140.455 21.498 140.455 21.0527V20.8066C140.455 20.291 140.531 19.832 140.684 19.4297C140.836 19.0234 141.043 18.6797 141.305 18.3984C141.566 18.1172 141.863 17.9043 142.195 17.7598C142.527 17.6152 142.871 17.543 143.227 17.543C143.68 17.543 144.07 17.6211 144.398 17.7773C144.73 17.9336 145.002 18.1523 145.213 18.4336C145.424 18.7109 145.58 19.0391 145.682 19.418C145.783 19.793 145.834 20.2031 145.834 20.6484V21.1348H141.1V20.25H144.75V20.168C144.734 19.8867 144.676 19.6133 144.574 19.3477C144.477 19.082 144.32 18.8633 144.105 18.6914C143.891 18.5195 143.598 18.4336 143.227 18.4336C142.98 18.4336 142.754 18.4863 142.547 18.5918C142.34 18.6934 142.162 18.8457 142.014 19.0488C141.865 19.252 141.75 19.5 141.668 19.793C141.586 20.0859 141.545 20.4238 141.545 20.8066V21.0527C141.545 21.3535 141.586 21.6367 141.668 21.9023C141.754 22.1641 141.877 22.3945 142.037 22.5938C142.201 22.793 142.398 22.9492 142.629 23.0625C142.863 23.1758 143.129 23.2324 143.426 23.2324C143.809 23.2324 144.133 23.1543 144.398 22.998C144.664 22.8418 144.896 22.6328 145.096 22.3711L145.752 22.8926C145.615 23.0996 145.441 23.2969 145.23 23.4844C145.02 23.6719 144.76 23.8242 144.451 23.9414C144.146 24.0586 143.785 24.1172 143.367 24.1172Z" fill="#111111"/>
<path d="M5.74805 23.6094V24.5H0.164062V23.7207L2.95898 20.6094C3.30273 20.2266 3.56836 19.9023 3.75586 19.6367C3.94727 19.3672 4.08008 19.127 4.1543 18.916C4.23242 18.7012 4.27148 18.4824 4.27148 18.2598C4.27148 17.9785 4.21289 17.7246 4.0957 17.498C3.98242 17.2676 3.81445 17.084 3.5918 16.9473C3.36914 16.8105 3.09961 16.7422 2.7832 16.7422C2.4043 16.7422 2.08789 16.8164 1.83398 16.9648C1.58398 17.1094 1.39648 17.3125 1.27148 17.5742C1.14648 17.8359 1.08398 18.1367 1.08398 18.4766H0C0 17.9961 0.105469 17.5566 0.316406 17.1582C0.527344 16.7598 0.839844 16.4434 1.25391 16.209C1.66797 15.9707 2.17773 15.8516 2.7832 15.8516C3.32227 15.8516 3.7832 15.9473 4.16602 16.1387C4.54883 16.3262 4.8418 16.5918 5.04492 16.9355C5.25195 17.2754 5.35547 17.6738 5.35547 18.1309C5.35547 18.3809 5.3125 18.6348 5.22656 18.8926C5.14453 19.1465 5.0293 19.4004 4.88086 19.6543C4.73633 19.9082 4.56641 20.1582 4.37109 20.4043C4.17969 20.6504 3.97461 20.8926 3.75586 21.1309L1.4707 23.6094H5.74805ZM8.2793 20.4395L7.41211 20.2168L7.83984 15.9688H12.2168V16.9707H8.75977L8.50195 19.291C8.6582 19.2012 8.85547 19.1172 9.09375 19.0391C9.33594 18.9609 9.61328 18.9219 9.92578 18.9219C10.3203 18.9219 10.6738 18.9902 10.9863 19.127C11.2988 19.2598 11.5645 19.4512 11.7832 19.7012C12.0059 19.9512 12.1758 20.252 12.293 20.6035C12.4102 20.9551 12.4688 21.3477 12.4688 21.7812C12.4688 22.1914 12.4121 22.5684 12.2988 22.9121C12.1895 23.2559 12.0234 23.5566 11.8008 23.8145C11.5781 24.0684 11.2969 24.2656 10.957 24.4062C10.6211 24.5469 10.2246 24.6172 9.76758 24.6172C9.42383 24.6172 9.09766 24.5703 8.78906 24.4766C8.48438 24.3789 8.21094 24.2324 7.96875 24.0371C7.73047 23.8379 7.53516 23.5918 7.38281 23.2988C7.23438 23.002 7.14062 22.6543 7.10156 22.2559H8.13281C8.17969 22.5762 8.27344 22.8457 8.41406 23.0645C8.55469 23.2832 8.73828 23.4492 8.96484 23.5625C9.19531 23.6719 9.46289 23.7266 9.76758 23.7266C10.0254 23.7266 10.2539 23.6816 10.4531 23.5918C10.6523 23.502 10.8203 23.373 10.957 23.2051C11.0938 23.0371 11.1973 22.834 11.2676 22.5957C11.3418 22.3574 11.3789 22.0898 11.3789 21.793C11.3789 21.5234 11.3418 21.2734 11.2676 21.043C11.1934 20.8125 11.082 20.6113 10.9336 20.4395C10.7891 20.2676 10.6113 20.1348 10.4004 20.041C10.1895 19.9434 9.94727 19.8945 9.67383 19.8945C9.31055 19.8945 9.03516 19.9434 8.84766 20.041C8.66406 20.1387 8.47461 20.2715 8.2793 20.4395ZM13.793 23.9258C13.793 23.7422 13.8496 23.5879 13.9629 23.4629C14.0801 23.334 14.248 23.2695 14.4668 23.2695C14.6855 23.2695 14.8516 23.334 14.9648 23.4629C15.082 23.5879 15.1406 23.7422 15.1406 23.9258C15.1406 24.1055 15.082 24.2578 14.9648 24.3828C14.8516 24.5078 14.6855 24.5703 14.4668 24.5703C14.248 24.5703 14.0801 24.5078 13.9629 24.3828C13.8496 24.2578 13.793 24.1055 13.793 23.9258ZM22.1777 19.5547V20.8555C22.1777 21.5547 22.1152 22.1445 21.9902 22.625C21.8652 23.1055 21.6855 23.4922 21.4512 23.7852C21.2168 24.0781 20.9336 24.291 20.6016 24.4238C20.2734 24.5527 19.9023 24.6172 19.4883 24.6172C19.1602 24.6172 18.8574 24.5762 18.5801 24.4941C18.3027 24.4121 18.0527 24.2812 17.8301 24.1016C17.6113 23.918 17.4238 23.6797 17.2676 23.3867C17.1113 23.0938 16.9922 22.7383 16.9102 22.3203C16.8281 21.9023 16.7871 21.4141 16.7871 20.8555V19.5547C16.7871 18.8555 16.8496 18.2695 16.9746 17.7969C17.1035 17.3242 17.2852 16.9453 17.5195 16.6602C17.7539 16.3711 18.0352 16.1641 18.3633 16.0391C18.6953 15.9141 19.0664 15.8516 19.4766 15.8516C19.8086 15.8516 20.1133 15.8926 20.3906 15.9746C20.6719 16.0527 20.9219 16.1797 21.1406 16.3555C21.3594 16.5273 21.5449 16.7578 21.6973 17.0469C21.8535 17.332 21.9727 17.6816 22.0547 18.0957C22.1367 18.5098 22.1777 18.9961 22.1777 19.5547ZM21.0879 21.0312V19.373C21.0879 18.9902 21.0645 18.6543 21.0176 18.3652C20.9746 18.0723 20.9102 17.8223 20.8242 17.6152C20.7383 17.4082 20.6289 17.2402 20.4961 17.1113C20.3672 16.9824 20.2168 16.8887 20.0449 16.8301C19.877 16.7676 19.6875 16.7363 19.4766 16.7363C19.2188 16.7363 18.9902 16.7852 18.791 16.8828C18.5918 16.9766 18.4238 17.127 18.2871 17.334C18.1543 17.541 18.0527 17.8125 17.9824 18.1484C17.9121 18.4844 17.877 18.8926 17.877 19.373V21.0312C17.877 21.4141 17.8984 21.752 17.9414 22.0449C17.9883 22.3379 18.0566 22.5918 18.1465 22.8066C18.2363 23.0176 18.3457 23.1914 18.4746 23.3281C18.6035 23.4648 18.752 23.5664 18.9199 23.6328C19.0918 23.6953 19.2812 23.7266 19.4883 23.7266C19.7539 23.7266 19.9863 23.6758 20.1855 23.5742C20.3848 23.4727 20.5508 23.3145 20.6836 23.0996C20.8203 22.8809 20.9219 22.6016 20.9883 22.2617C21.0547 21.918 21.0879 21.5078 21.0879 21.0312ZM27.1348 15.9219V24.5H26.0508V17.2754L23.8652 18.0723V17.0938L26.9648 15.9219H27.1348ZM30.457 23.9258C30.457 23.7422 30.5137 23.5879 30.627 23.4629C30.7441 23.334 30.9121 23.2695 31.1309 23.2695C31.3496 23.2695 31.5156 23.334 31.6289 23.4629C31.7461 23.5879 31.8047 23.7422 31.8047 23.9258C31.8047 24.1055 31.7461 24.2578 31.6289 24.3828C31.5156 24.5078 31.3496 24.5703 31.1309 24.5703C30.9121 24.5703 30.7441 24.5078 30.627 24.3828C30.5137 24.2578 30.457 24.1055 30.457 23.9258ZM39.0762 23.6094V24.5H33.4922V23.7207L36.2871 20.6094C36.6309 20.2266 36.8965 19.9023 37.084 19.6367C37.2754 19.3672 37.4082 19.127 37.4824 18.916C37.5605 18.7012 37.5996 18.4824 37.5996 18.2598C37.5996 17.9785 37.541 17.7246 37.4238 17.498C37.3105 17.2676 37.1426 17.084 36.9199 16.9473C36.6973 16.8105 36.4277 16.7422 36.1113 16.7422C35.7324 16.7422 35.416 16.8164 35.1621 16.9648C34.9121 17.1094 34.7246 17.3125 34.5996 17.5742C34.4746 17.8359 34.4121 18.1367 34.4121 18.4766H33.3281C33.3281 17.9961 33.4336 17.5566 33.6445 17.1582C33.8555 16.7598 34.168 16.4434 34.582 16.209C34.9961 15.9707 35.5059 15.8516 36.1113 15.8516C36.6504 15.8516 37.1113 15.9473 37.4941 16.1387C37.877 16.3262 38.1699 16.5918 38.373 16.9355C38.5801 17.2754 38.6836 17.6738 38.6836 18.1309C38.6836 18.3809 38.6406 18.6348 38.5547 18.8926C38.4727 19.1465 38.3574 19.4004 38.209 19.6543C38.0645 19.9082 37.8945 20.1582 37.6992 20.4043C37.5078 20.6504 37.3027 20.8926 37.084 21.1309L34.7988 23.6094H39.0762ZM45.5918 19.5547V20.8555C45.5918 21.5547 45.5293 22.1445 45.4043 22.625C45.2793 23.1055 45.0996 23.4922 44.8652 23.7852C44.6309 24.0781 44.3477 24.291 44.0156 24.4238C43.6875 24.5527 43.3164 24.6172 42.9023 24.6172C42.5742 24.6172 42.2715 24.5762 41.9941 24.4941C41.7168 24.4121 41.4668 24.2812 41.2441 24.1016C41.0254 23.918 40.8379 23.6797 40.6816 23.3867C40.5254 23.0938 40.4062 22.7383 40.3242 22.3203C40.2422 21.9023 40.2012 21.4141 40.2012 20.8555V19.5547C40.2012 18.8555 40.2637 18.2695 40.3887 17.7969C40.5176 17.3242 40.6992 16.9453 40.9336 16.6602C41.168 16.3711 41.4492 16.1641 41.7773 16.0391C42.1094 15.9141 42.4805 15.8516 42.8906 15.8516C43.2227 15.8516 43.5273 15.8926 43.8047 15.9746C44.0859 16.0527 44.3359 16.1797 44.5547 16.3555C44.7734 16.5273 44.959 16.7578 45.1113 17.0469C45.2676 17.332 45.3867 17.6816 45.4688 18.0957C45.5508 18.5098 45.5918 18.9961 45.5918 19.5547ZM44.502 21.0312V19.373C44.502 18.9902 44.4785 18.6543 44.4316 18.3652C44.3887 18.0723 44.3242 17.8223 44.2383 17.6152C44.1523 17.4082 44.043 17.2402 43.9102 17.1113C43.7812 16.9824 43.6309 16.8887 43.459 16.8301C43.291 16.7676 43.1016 16.7363 42.8906 16.7363C42.6328 16.7363 42.4043 16.7852 42.2051 16.8828C42.0059 16.9766 41.8379 17.127 41.7012 17.334C41.5684 17.541 41.4668 17.8125 41.3965 18.1484C41.3262 18.4844 41.291 18.8926 41.291 19.373V21.0312C41.291 21.4141 41.3125 21.752 41.3555 22.0449C41.4023 22.3379 41.4707 22.5918 41.5605 22.8066C41.6504 23.0176 41.7598 23.1914 41.8887 23.3281C42.0176 23.4648 42.166 23.5664 42.334 23.6328C42.5059 23.6953 42.6953 23.7266 42.9023 23.7266C43.168 23.7266 43.4004 23.6758 43.5996 23.5742C43.7988 23.4727 43.9648 23.3145 44.0977 23.0996C44.2344 22.8809 44.3359 22.6016 44.4023 22.2617C44.4688 21.918 44.502 21.5078 44.502 21.0312ZM52.5762 23.6094V24.5H46.9922V23.7207L49.7871 20.6094C50.1309 20.2266 50.3965 19.9023 50.584 19.6367C50.7754 19.3672 50.9082 19.127 50.9824 18.916C51.0605 18.7012 51.0996 18.4824 51.0996 18.2598C51.0996 17.9785 51.041 17.7246 50.9238 17.498C50.8105 17.2676 50.6426 17.084 50.4199 16.9473C50.1973 16.8105 49.9277 16.7422 49.6113 16.7422C49.2324 16.7422 48.916 16.8164 48.6621 16.9648C48.4121 17.1094 48.2246 17.3125 48.0996 17.5742C47.9746 17.8359 47.9121 18.1367 47.9121 18.4766H46.8281C46.8281 17.9961 46.9336 17.5566 47.1445 17.1582C47.3555 16.7598 47.668 16.4434 48.082 16.209C48.4961 15.9707 49.0059 15.8516 49.6113 15.8516C50.1504 15.8516 50.6113 15.9473 50.9941 16.1387C51.377 16.3262 51.6699 16.5918 51.873 16.9355C52.0801 17.2754 52.1836 17.6738 52.1836 18.1309C52.1836 18.3809 52.1406 18.6348 52.0547 18.8926C51.9727 19.1465 51.8574 19.4004 51.709 19.6543C51.5645 19.9082 51.3945 20.1582 51.1992 20.4043C51.0078 20.6504 50.8027 20.8926 50.584 21.1309L48.2988 23.6094H52.5762ZM57.8965 15.957H57.9902V16.877H57.8965C57.3223 16.877 56.8418 16.9707 56.4551 17.1582C56.0684 17.3418 55.7617 17.5898 55.5352 17.9023C55.3086 18.2109 55.1445 18.5586 55.043 18.9453C54.9453 19.332 54.8965 19.7246 54.8965 20.123V21.377C54.8965 21.7559 54.9414 22.0918 55.0312 22.3848C55.1211 22.6738 55.2441 22.918 55.4004 23.1172C55.5566 23.3164 55.7324 23.4668 55.9277 23.5684C56.127 23.6699 56.334 23.7207 56.5488 23.7207C56.7988 23.7207 57.0215 23.6738 57.2168 23.5801C57.4121 23.4824 57.5762 23.3477 57.709 23.1758C57.8457 23 57.9492 22.793 58.0195 22.5547C58.0898 22.3164 58.125 22.0547 58.125 21.7695C58.125 21.5156 58.0938 21.2715 58.0312 21.0371C57.9688 20.7988 57.873 20.5879 57.7441 20.4043C57.6152 20.2168 57.4531 20.0703 57.2578 19.9648C57.0664 19.8555 56.8379 19.8008 56.5723 19.8008C56.2715 19.8008 55.9902 19.875 55.7285 20.0234C55.4707 20.168 55.2578 20.3594 55.0898 20.5977C54.9258 20.832 54.832 21.0879 54.8086 21.3652L54.2344 21.3594C54.2891 20.9219 54.3906 20.5488 54.5391 20.2402C54.6914 19.9277 54.8789 19.6738 55.1016 19.4785C55.3281 19.2793 55.5801 19.1348 55.8574 19.0449C56.1387 18.9512 56.4355 18.9043 56.748 18.9043C57.1738 18.9043 57.541 18.9844 57.8496 19.1445C58.1582 19.3047 58.4121 19.5195 58.6113 19.7891C58.8105 20.0547 58.957 20.3555 59.0508 20.6914C59.1484 21.0234 59.1973 21.3652 59.1973 21.7168C59.1973 22.1191 59.1406 22.4961 59.0273 22.8477C58.9141 23.1992 58.7441 23.5078 58.5176 23.7734C58.2949 24.0391 58.0195 24.2461 57.6914 24.3945C57.3633 24.543 56.9824 24.6172 56.5488 24.6172C56.0879 24.6172 55.6855 24.5234 55.3418 24.3359C54.998 24.1445 54.7129 23.8906 54.4863 23.5742C54.2598 23.2578 54.0898 22.9062 53.9766 22.5195C53.8633 22.1328 53.8066 21.7402 53.8066 21.3418V20.832C53.8066 20.2305 53.8672 19.6406 53.9883 19.0625C54.1094 18.4844 54.3184 17.9609 54.6152 17.4922C54.916 17.0234 55.332 16.6504 55.8633 16.373C56.3945 16.0957 57.0723 15.957 57.8965 15.957Z" fill="#111111" fill-opacity="0.55"/>
</svg>
